{"title":"Battleship.2012.HD.CAM.XViD-26K","uid":7274768,"size":1509102155,"categoryP":"video","categoryS":"movies","magnet":"?xt=urn:btih:5b80ec91d4dc0e1c506d0e1db91f80591d028614&amp;dn=Battleship.2012.HD.CAM.XViD-26K&amp;tr=udp%3A%2F%2Ftracker.openbittorrent.com%3A80&amp;tr=udp%3A%2F%2Fopen.demonii.com%3A1337&amp;tr=udp%3A%2F%2Ftracker.coppersurfer.tk%3A6969&amp;tr=udp%3A%2F%2Fexodus.desync.com%3A6969","seeders":4,"leechers":0,"uploader":"MisterNobody","files":8,"time":1337246939,"description":"Battleship.2012.HD.CAM.XViD-26K\n &lt;a href=&quot;\nhttp://www.imdb.com/title/tt1440129/&quot; rel=&quot;nofollow&quot; target=&quot;_NEW&quot;&gt;\nhttp://www.imdb.com/title/tt1440129/&lt;/a&gt;\n\nPlot:\nA fleet of ships is forced to do battle with an armada of unknown origins in order to discover and thwart their destructive goals.\n\nSources - VIDEO: CHINA HD VDEO....Thanks \n         AUDIO: 26K cam audio...Thanks \n\nVideo\nID                                       : 0\nFormat                                   : MPEG-4 Visual\nFormat profile                           : Advanced Simple@L5\nFormat settings, BVOP                    : 2\nFormat settings, QPel                    : No\nFormat settings, GMC                     : No warppoints\nFormat settings, Matrix                  : Default (H.263)\nMuxing mode                              : Packed bitstream\nCodec ID                                 : XVID\nCodec ID/Hint                            : XviD\nDuration                                 : 2h 1mn\nBit rate                                 : 2 294 Kbps\nWidth                                    : 1 280 pixels\nHeight                                   : 570 pixels\nDisplay aspect ratio                     : 2.25:1\nFrame rate                               : 29.970 fps\nColor space                              : YUV\nChroma subsampling                       : 4:2:0\nBit depth                                : 8 bits\nScan type                                : Progressive\nCompression mode                         : Lossy\nBits/(Pixel*Frame)                       : 0.105\nStream size                              : 1.94 GiB (94%)\nWriting library                          : XviD 64\n\nAudio\nID                                       : 1\nFormat                                   : MPEG Audio\nFormat version                           : Version 1\nFormat profile                           : Layer 3\nCodec ID                                 : 55\nCodec ID/Hint                            : MP3\nDuration                                 : 2h 1mn\nBit rate mode                            : Constant\nBit rate                                 : 128 Kbps\nChannel(s)                               : 2 channels\nSampling rate                            : 44.1 KHz\nCompression mode                         : Lossy\nStream size                              : 111 MiB (5%)\nAlignment                                : Split accross interleaves\nInterleave, duration                     : 16364 ms (490.44 video frames)\n\n\nNotes -\nencoded the video cropped, resized .. enjoy..","torrent":{"xt":"urn:btih:5b80ec91d4dc0e1c506d0e1db91f80591d028614","amp;dn":"Battleship.2012.HD.CAM.XViD-26K","amp;tr":["udp%3A%2F%2Ftracker.openbittorrent.com%3A80","udp%3A%2F%2Fopen.demonii.com%3A1337","udp%3A%2F%2Ftracker.coppersurfer.tk%3A6969","udp%3A%2F%2Fexodus.desync.com%3A6969"],"infoHash":"5b80ec91d4dc0e1c506d0e1db91f80591d028614","infoHashBuffer":{"type":"Buffer","data":[91,128,236,145,212,220,14,28,80,109,14,29,185,31,128,89,29,2,134,20]},"announce":[],"urlList":[]}}